<svg xmlns:xlink="http://www.w3.org/1999/xlink" xmlns="http://www.w3.org/2000/svg" id="Logo_Artwork" data-name="Logo Artwork" viewBox="0 0 256.29 75.86" width="256.29"  height="75.86" ><defs><style>      .cls-1 {        fill: #5d8ab4;      }      .cls-1, .cls-2, .cls-3, .cls-4, .cls-5, .cls-6 {        stroke-width: 0px;      }      .cls-3 {        fill: #221f1f;      }      .cls-4 {        fill: #1b5090;      }      .cls-5 {        fill: #ffcd00;      }      .cls-6 {        fill: #143157;      }    </style></defs><g><g><polygon class="cls-3" points="137.64 28.81 120.95 28.81 120.95 17.13 141.35 17.13 141.35 11.79 115.56 11.79 115.56 15.15 115.56 17.13 115.56 28.81 115.56 34.04 115.56 51.12 120.95 51.12 120.95 34.04 137.64 34.04 137.64 28.81"/><path class="cls-3" d="m165.62,39.32v-15.28h-5.39v14.78c0,5.28-2.53,7.36-5.62,7.36s-5.67-2.08-5.67-7.36v-14.78l-5.34,4.38v10.9c0,7.81,4.61,12.19,11.01,12.19s11.01-4.38,11.01-12.19Z"/><path class="cls-3" d="m172.64,42.41c0,4.94,1.52,7.7,4.89,8.76,2.75.84,6.69.06,8.77-1.97l-2.92-4.1c-.9.9-2.58,1.4-3.71.95-1.18-.45-1.69-1.46-1.69-3.88v-13.32h5.56v-4.83h-5.56v-9.37l-5.34,3.7v5.67h-3.65v4.83h3.65v13.54Z"/><path class="cls-3" d="m199.27,51.51c6.41,0,11.01-4.38,11.01-12.19v-15.28h-5.39v14.78c0,5.28-2.53,7.36-5.62,7.36s-5.67-2.08-5.67-7.36v-14.78l-5.34,4.52v10.76c0,7.81,4.61,12.19,11.01,12.19Z"/><path class="cls-3" d="m230.05,23.81c-.67-.11-1.4-.22-2.13-.22-2.81,0-5.17,1.12-6.97,2.98v-2.53h-5.34v27.08h5.34v-15.11c0-5.06,2.7-7.02,5.96-7.02.79,0,1.46.11,2.13.39l1.01-5.56Z"/><path class="cls-3" d="m256.29,37.58c0-7.64-4.21-13.93-12.08-13.93s-13.03,6.29-13.03,13.93,5.34,13.93,13.2,13.93c5,0,8.88-2.53,11.07-6.35l-4.89-2.36c-1.24,2.02-3.31,3.37-6.18,3.37-3.93,0-6.41-2.53-7.19-5.9h18.88c.17-.9.22-1.8.22-2.7Zm-19.21-2.36c.73-3.54,3.09-6.24,7.14-6.24s6.01,2.7,6.57,6.24h-13.71Z"/></g><path class="cls-3" d="m120.82,67.21c-2.09,0-3.41-1.64-3.41-3.69s1.37-3.55,3.41-3.55c.87,0,1.51.36,2.09.98l1.37-1.01c-.94-1.07-2.06-1.57-3.48-1.57-3.17,0-5.24,2.17-5.24,5.26s2.19,5.17,5.24,5.17c1.46,0,2.85-.56,3.7-1.77l-1.46-1.04c-.56.71-1.29,1.2-2.23,1.2Z"/><path class="cls-3" d="m128.91,58.63l-4.32,9.92h1.98l.9-2.27h4.3l.93,2.27h2.02l-4.28-9.92h-1.53Zm-.84,6.14l1.56-4.04,1.53,4.04h-3.08Z"/><path class="cls-3" d="m142.97,61.48c0-2.17-1.74-2.85-3.64-2.85h-3.5v9.92h1.77v-4.21h1.29l2.3,4.21h2.13l-2.64-4.39c1.4-.2,2.3-1.21,2.3-2.69Zm-5.38,1.36v-2.69h1.58c.93,0,1.95.18,1.95,1.32,0,1.23-1.07,1.37-2.07,1.37h-1.46Z"/><polygon class="cls-3" points="146.42 64.27 150.98 64.27 150.98 62.67 146.42 62.67 146.42 60.23 151.23 60.23 151.23 58.63 144.66 58.63 144.66 68.56 151.48 68.56 151.48 66.96 146.42 66.96 146.42 64.27"/><path class="cls-3" d="m162.1,67.21c-2.09,0-3.41-1.64-3.41-3.69s1.37-3.55,3.41-3.55c.87,0,1.51.36,2.09.98l1.37-1.01c-.94-1.07-2.06-1.57-3.48-1.57-3.17,0-5.24,2.17-5.24,5.26s2.19,5.17,5.24,5.17c1.46,0,2.85-.56,3.7-1.77l-1.46-1.04c-.56.71-1.29,1.2-2.23,1.2Z"/><path class="cls-3" d="m171.76,58.38c-3.46,0-5.31,2.4-5.31,5.26,0,3.07,2.16,5.17,5.22,5.17s5.31-2.12,5.31-5.23-2.08-5.2-5.22-5.2Zm-.06,8.83c-2.13,0-3.41-1.65-3.41-3.69s1.37-3.55,3.39-3.55,3.43,1.51,3.43,3.55-1.28,3.69-3.42,3.69Z"/><polygon class="cls-3" points="185.84 66.01 185.81 66.01 181 58.63 178.66 58.63 178.66 68.56 180.43 68.56 180.43 60.95 180.46 60.95 185.36 68.56 187.6 68.56 187.6 58.63 185.84 58.63 185.84 66.01"/><path class="cls-3" d="m192.87,62.6c-.98-.31-1.54-.67-1.54-1.35,0-.77.63-1.28,1.63-1.28.69,0,1.35.24,1.74.79l1.29-1.36c-.7-.66-1.71-1.02-2.85-1.02-2.16,0-3.66,1.21-3.66,3s1.15,2.4,2.93,2.94c1.28.39,1.78.79,1.78,1.53,0,.8-.78,1.36-1.74,1.36-.8,0-1.53-.38-1.96-1.04l-1.33,1.29c.77.93,1.92,1.35,3.32,1.35,1.95,0,3.56-1.12,3.56-3.17s-1.58-2.55-3.17-3.04Z"/><path class="cls-3" d="m204.05,64.9c0,.91-.52,2.23-2.23,2.23s-2.23-1.32-2.23-2.23v-6.27h-1.77v6.35c0,1.93,1.36,3.83,4,3.83s4-1.88,4-3.83v-6.35h-1.77v6.27Z"/><polygon class="cls-3" points="209.76 58.63 208 58.63 208 68.56 213.98 68.56 213.98 66.96 209.76 66.96 209.76 58.63"/><polygon class="cls-3" points="220.83 58.63 212.98 58.63 212.98 60.23 216.02 60.23 216.02 68.56 217.78 68.56 217.78 60.23 220.83 60.23 220.83 58.63"/><path class="cls-3" d="m223.95,58.63l-4.32,9.92h1.98l.9-2.27h4.3l.93,2.27h2.02l-4.28-9.92h-1.53Zm-.84,6.14l1.56-4.04,1.53,4.04h-3.08Z"/><polygon class="cls-3" points="238.05 66.01 238.02 66.01 233.21 58.63 230.87 58.63 230.87 68.56 232.63 68.56 232.63 60.95 232.66 60.95 237.57 68.56 239.81 68.56 239.81 58.63 238.05 58.63 238.05 66.01"/><polygon class="cls-3" points="241.02 60.23 244.06 60.23 244.06 68.56 245.83 68.56 245.83 60.23 248.87 60.23 248.87 58.63 241.02 58.63 241.02 60.23"/><path class="cls-3" d="m253.12,62.6c-.98-.31-1.54-.67-1.54-1.35,0-.77.63-1.28,1.63-1.28.69,0,1.35.24,1.74.79l1.29-1.36c-.7-.66-1.71-1.02-2.85-1.02-2.16,0-3.66,1.21-3.66,3s1.15,2.4,2.93,2.94c1.28.39,1.78.79,1.78,1.53,0,.8-.78,1.36-1.74,1.36-.8,0-1.53-.38-1.96-1.04l-1.33,1.29c.77.93,1.92,1.35,3.32,1.35,1.95,0,3.56-1.12,3.56-3.17s-1.58-2.55-3.17-3.04Z"/></g><g><path class="cls-4" d="m49.38,30.8L19.75,0h-.12L1.43,18.91c-1.91,1.99-1.91,5.13,0,7.11l47.95,49.84,21.68-22.53-21.68-22.53h0Z"/><path class="cls-1" d="m97.24,18.82L79.13,0l-20.91,21.61-4.48,4.65c-.7.86-.75,2.08-.1,2.99l17.42,24.07,26.18-27.21c1.96-2.04,1.96-5.26,0-7.3Z"/><path class="cls-2" d="m53.73,26.27l-4.36,4.53,21.68,22.53-17.42-24.07c-.66-.91-.6-2.13.1-2.99Z"/><path class="cls-6" d="m53.73,26.27c.04-.05.08-.11.13-.16l4.35-4.49L78.65.37l-29.27,22.87L19.75,0l29.63,30.8,4.36-4.53Z"/><path class="cls-6" d="m65.2.37l-28-.04c-1.63-.25-3.61,2.2-1.76,3.93l15.6,12.29,15.26-12.28c1.14-.89.35-3.9-1.11-3.9Z"/><path class="cls-5" d="m64.22.03h-29.7c-1.49,0-2.14,1.88-.97,2.8l15.79,12.38,15.85-12.38c1.17-.92.52-2.8-.96-2.8Z"/></g></svg>