<?xml version="1.0" encoding="UTF-8"?>
<svg id="Layer_2" data-name="Layer 2" xmlns="http://www.w3.org/2000/svg" viewBox="0 0 3000 3000">
  <defs>
    <style>
      .cls-1 {
        fill: #143157;
      }

      .cls-2 {
        fill: #1b5090;
      }

      .cls-3 {
        fill: #fff;
      }

      .cls-4 {
        fill: #ffcd00;
      }

      .cls-5 {
        fill: #5d8ab4;
      }
    </style>
  </defs>
  <g id="Layer_1-2" data-name="Layer 1">
    <rect class="cls-3" width="3000" height="3000" rx="305.18" ry="305.18"/>
    <g>
      <path class="cls-2" d="M1500.43,1382.51l-488.23-507.51h-1.98l-299.89,311.59c-31.47,32.79-31.47,84.53,0,117.16l790.11,821.25,357.24-371.24-357.24-371.24h0Z"/>
      <path class="cls-5" d="M2289.06,1185.11l-298.41-310.11-344.55,356.08-73.82,76.62c-11.53,14.17-12.36,34.27-1.65,49.27l287.04,396.62,431.39-448.36c32.3-33.61,32.3-86.67,0-120.29v.16Z"/>
      <path d="M1572.11,1307.87l-71.84,74.64,357.24,371.24-287.04-396.62c-10.88-14.99-9.89-35.1,1.65-49.27Z"/>
      <path class="cls-1" d="M1572.11,1307.87c.66-.82,1.32-1.81,2.14-2.64l71.68-73.98,336.8-350.15-482.3,376.85-488.23-382.94,488.23,507.51,71.84-74.64h-.16Z"/>
      <path class="cls-1" d="M1761.11,881.1l-461.38-.66c-26.86-4.12-59.48,36.25-29,64.76l257.05,202.51,251.45-202.35c18.78-14.67,5.77-64.26-18.29-64.26h.16Z"/>
      <path class="cls-4" d="M1744.96,875.49h-489.39c-24.55,0-35.26,30.98-15.98,46.14l260.18,203.99,261.17-203.99c19.28-15.16,8.57-46.14-15.82-46.14h-.16Z"/>
    </g>
  </g>
</svg>