<?xml version="1.0" encoding="UTF-8"?>
<svg id="Logo_Artwork" xmlns="http://www.w3.org/2000/svg" version="1.1" viewBox="0 0 20 17.2">
  <!-- Generator: Adobe Illustrator 29.3.0, SVG Export Plug-In . SVG Version: 2.1.0 Build 146)  -->
  <defs>
    <style>
      .st0 {
        stroke-width: 3.7px;
      }

      .st0, .st1, .st2 {
        fill: #fff;
      }

      .st0, .st2 {
        stroke: #fff;
        stroke-miterlimit: 10;
      }

      .st2 {
        stroke-width: 2.5px;
      }
    </style>
  </defs>
  <path class="st1" d="M10,8.1L4,1.9h0L.3,5.7c-.4.4-.4,1,0,1.4l9.7,10.1,4.4-4.6-4.4-4.6h0Z"/>
  <path class="st1" d="M19.7,5.7l-3.7-3.8-4.2,4.4-.9.9c-.1.2-.2.4,0,.6l3.5,4.9,5.3-5.5c.4-.4.4-1.1,0-1.5h0Z"/>
  <path class="st2" d="M10.9,7.2s0,0,0,0l.9-.9L15.9,1.9l-5.9,4.6L4,1.9l6,6.2.9-.9h0Z"/>
  <path class="st0" d="M13,1.9h-6c-.3,0-.4.4-.2.6l3.2,2.5,3.2-2.5c.2-.2.1-.6-.2-.6h0Z"/>
</svg>