<?xml version="1.0" encoding="UTF-8"?>
<svg id="Logo_Artwork" xmlns="http://www.w3.org/2000/svg" version="1.1" viewBox="0 0 500 500">
  <!-- Generator: Adobe Illustrator 29.3.0, SVG Export Plug-In . SVG Version: 2.1.0 Build 146)  -->
  <defs>
    <style>
      .st0 {
        fill: #fff;
      }

      .st1 {
        fill: none;
        stroke: #fff;
        stroke-miterlimit: 10;
        stroke-width: 2.5px;
      }
    </style>
  </defs>
  <path class="st0" d="M250.1,213.9L100,57.9h-.6L7.3,153.7c-9.7,10.1-9.7,26,0,36l242.8,252.4,109.8-114.1-109.8-114.1h0Z"/>
  <path class="st0" d="M492.5,153.2l-91.7-95.3-105.9,109.5-22.7,23.6c-3.5,4.3-3.8,10.5-.5,15.1l88.2,121.9,132.6-137.8c9.9-10.3,9.9-26.6,0-37h0Z"/>
  <path class="st1" d="M272.2,190.9c.2-.3.4-.6.7-.8l22-22.8,103.6-107.6-148.3,115.9L100,57.9l150.1,156,22.1-22.9h0Z"/>
  <path class="st0" d="M325.3,58h-150.5c-7.5,0-10.8,9.5-4.9,14.2l80,62.7,80.3-62.7c5.9-4.6,2.7-14.2-4.9-14.2h0Z"/>
</svg>