<?xml version="1.0" encoding="UTF-8"?>
<svg id="Layer_1" xmlns="http://www.w3.org/2000/svg" xmlns:xlink="http://www.w3.org/1999/xlink" version="1.1" viewBox="0 0 800 800">
  <!-- Generator: Adobe Illustrator 29.2.1, SVG Export Plug-In . SVG Version: 2.1.0 Build 116)  -->
  <defs>
    <style>
      .st0 {
        fill: #fff;
      }
    </style>
  </defs>
  <path class="st0" d="M358.4,334.2c7.1,0,12.9-5.8,12.9-12.9s-5.8-12.9-12.9-12.9-12.9,5.8-12.9,12.9,5.8,12.9,12.9,12.9Z"/>
  <path class="st0" d="M323,332.8h-22.9c0-43.5,26.5-70.3,69.8-70.3v22.5c-30.8,0-47,16.8-47,47.8Z"/>
  <path class="st0" d="M647.9,453.2c-7.7,0-14.6-2-20.7-5.9-6.1-4-10.9-9.7-14.4-17.3-3.5-7.5-5.3-16.7-5.3-27.5s1.8-20.1,5.4-27.6c3.6-7.5,8.4-13.2,14.6-17.1,6.1-3.9,12.9-5.8,20.4-5.8s10.5,1,14.2,2.9c3.7,1.9,6.6,4.3,8.8,7,2.2,2.7,3.8,5.3,5,7.6h1v-49h23.1v130.9h-22.7v-15.5h-1.4c-1.2,2.4-2.9,4.9-5.2,7.6-2.2,2.7-5.2,4.9-8.9,6.8-3.7,1.9-8.4,2.8-14,2.8h0ZM654.3,434.2c7.3,0,13-2.9,17-8.8,4-5.8,6-13.5,6-23.1s-2-17.1-5.9-22.8c-4-5.7-9.6-8.5-17.1-8.5s-13.5,3-17.4,8.8c-3.9,5.9-5.9,13.4-5.9,22.6s2,16.8,5.9,22.8c4,6,9.7,9,17.3,9h0Z"/>
  <path class="st0" d="M190.7,362.4c-2.1-7-5.7-12.4-11-16.4-5.2-4-11.8-5.9-19.7-5.9s-13.3,1.8-18.7,5.3c-5.5,3.5-9.8,8.7-12.9,15.5-3.1,6.8-4.7,15.1-4.7,25,0,14.8,3.4,26.2,10.2,34.2,6.8,7.9,15.7,11.9,26.6,11.9s17.6-2.7,23.4-8.2c5.8-5.5,8.8-12.9,9-22.2h-30.1v-18.5h52.9v15.7c0,11.2-2.4,20.9-7.1,29.1-4.7,8.2-11.3,14.4-19.6,18.8-8.3,4.4-17.9,6.6-28.7,6.6s-22.5-2.7-31.6-8.2c-9.1-5.4-16.2-13.2-21.3-23.2-5.1-10-7.6-21.9-7.6-35.8s2.6-26.1,7.8-36.2c5.2-10.1,12.3-17.8,21.3-23.1,9-5.4,19.2-8.1,30.6-8.1s18.4,1.8,26.2,5.6c7.8,3.7,14.2,8.8,19.3,15.4,5.1,6.5,8.2,14.1,9.6,22.6h-24.1,0Z"/>
  <path class="st0" d="M430,453.2c-7.7,0-14.6-2-20.6-5.9-6.1-4-10.9-9.7-14.4-17.3-3.5-7.5-5.3-16.7-5.3-27.5s1.8-20.1,5.4-27.6c3.6-7.5,8.4-13.2,14.6-17.1,6.1-3.9,12.9-5.8,20.4-5.8s10.5,1,14.2,2.9c3.7,1.9,6.6,4.3,8.8,7,2.2,2.7,3.8,5.3,5,7.6h1v-49h23.1v130.9h-22.7v-15.5h-1.4c-1.2,2.4-2.9,4.9-5.2,7.6-2.2,2.7-5.2,4.9-8.9,6.8-3.7,1.9-8.4,2.8-14,2.8h0ZM436.4,434.2c7.3,0,13-2.9,17-8.8,4-5.8,6-13.5,6-23.1s-2-17.1-5.9-22.8c-4-5.7-9.6-8.5-17.1-8.5s-13.5,3-17.4,8.8c-3.9,5.9-5.9,13.4-5.9,22.6s2,16.8,5.9,22.8c4,6,9.7,9,17.3,9h0Z"/>
  <path class="st0" d="M547,453.4c-9.8,0-18.3-2.1-25.4-6.2-7.1-4.1-12.6-10-16.4-17.5-3.8-7.5-5.7-16.4-5.7-26.7s1.9-19,5.7-26.6c3.8-7.7,9.2-13.6,16.2-17.9,6.9-4.3,15.1-6.4,24.4-6.4s15.4,1.7,22.2,5.2c6.8,3.5,12.2,8.9,16.3,16.2,4.1,7.3,6.1,16.7,6.1,28.2v7.1h-68.2c.1,8.4,2.4,14.9,7,19.6,4.5,4.7,10.5,7,18,7s9.3-1.1,12.9-3.2c3.6-2.2,6.2-5.3,7.8-9.4l21.5,2.4c-2,8.5-6.8,15.4-14.2,20.5-7.5,5.1-16.9,7.7-28.3,7.7h0ZM522.4,393.2h46c0-6.7-2.1-12.2-6.2-16.6-4.1-4.4-9.5-6.5-16.1-6.5s-12.5,2.3-16.7,6.8c-4.3,4.6-6.6,10-6.9,16.2h0Z"/>
  <path class="st0" d="M370,353.3h-23.1v98.2h23.1v-98.2Z"/>
  <path class="st0" d="M300.1,410.2v-56.9h23.1v98.2h-22.4v-17.4h-1c-2.2,5.5-5.8,10-10.9,13.5-5,3.5-11.2,5.2-18.6,5.2s-17.4-3.2-23.5-9.6c-6.1-6.4-9.1-15.5-9.1-27.3v-62.5h23.1v58.9c0,6.2,1.7,11.2,5.1,14.8,3.4,3.7,7.9,5.5,13.4,5.5s6.7-.8,9.9-2.5c3.2-1.7,5.8-4.1,7.9-7.4,2.1-3.3,3.1-7.5,3.1-12.4h0Z"/>
  <path class="st0" d="M323.3,510.6h-7.2c-.4-2.4-1.5-4.2-3.2-5.5-1.7-1.3-3.8-2-6.2-2s-5.9,1.2-7.9,3.6c-2,2.4-3.1,5.8-3.1,10.3s1,8,3.1,10.3c2.1,2.4,4.7,3.5,7.9,3.5s4.4-.6,6.1-1.9c1.7-1.3,2.8-3,3.3-5.3h7.2c-.3,2.6-1.3,4.8-2.7,6.9-1.5,2-3.3,3.7-5.7,4.9-2.4,1.2-5.1,1.8-8.2,1.8s-6.6-.8-9.3-2.4c-2.7-1.6-4.9-3.9-6.4-7-1.6-3-2.4-6.7-2.4-10.9s.8-7.9,2.4-10.9c1.6-3,3.7-5.3,6.5-7,2.7-1.6,5.8-2.4,9.2-2.4s5.6.6,7.9,1.6c2.4,1.1,4.3,2.7,5.9,4.7,1.5,2,2.5,4.6,2.9,7.5h0Z"/>
  <path class="st0" d="M362.1,536.8h-7.6l13.9-39.5h8.8l13.9,39.5h-7.6l-3.3-9.8h-14.8l-3.3,9.8h0ZM367.2,521.3h11l-5.3-15.9h-.3l-5.3,15.9Z"/>
  <path class="st0" d="M423.3,536.8v-39.5h14.8c4.5,0,8,1.2,10.3,3.5s3.6,5.4,3.6,9.1-.6,5-1.8,6.9c-1.2,1.9-3,3.4-5.3,4.3l8.5,15.7h-8l-7.7-14.5h-7.3v14.5h-7.1,0ZM430.4,516.4h6.6c2.7,0,4.6-.6,5.8-1.7,1.3-1.1,1.9-2.7,1.9-4.8s-.6-3.7-1.9-4.9c-1.3-1.2-3.2-1.8-5.9-1.8h-6.6v13.1h0Z"/>
  <path class="st0" d="M485.6,536.8v-39.5h25.6v6h-18.5v10.7h17.2v6h-17.2v10.8h18.6v6h-25.8Z"/>
</svg>