<svg xmlns:xlink="http://www.w3.org/1999/xlink" xmlns="http://www.w3.org/2000/svg" viewBox="0 0 63.19 63.19" width="63.19"  height="63.19" ><defs><style>.d{fill:#ffcd00;}</style></defs><g id="a"/><g id="b"><g id="c"><g><path class="d" d="M32,29.77c-.66-.15-1.33-.05-1.99-.06,0,0-.02,.01-.03,.02v3.11c.62,0,1.23,.05,1.83-.01,.67-.08,1.18-.43,1.35-1.15,.22-.92-.24-1.7-1.16-1.91Z"/><path class="d" d="M16.27,30.7c-1.38,1.4-1.47,3.74-.09,5.27,1.18,1.32,3.12,1.43,4.21,.84-.4-.35-.79-.7-1.2-1.05,.47-.54,.94-1.06,1.4-1.59l1.41,1.22c.92-1.54,.72-3.66-.76-4.92-1.47-1.24-3.63-1.14-4.97,.22Z"/><path class="d" d="M31.6,0C14.15,0,0,14.15,0,31.6s14.15,31.6,31.6,31.6h31.6V31.6C63.19,14.15,49.05,0,31.6,0Zm-5.28,39.37h-2.98l-.96-.83s-.22,.15-.42,.27c-.63,.35-1.3,.59-2.02,.71-1.29,.21-2.53,.06-3.72-.49-1.03-.48-1.88-1.18-2.53-2.11-.57-.83-.93-1.74-1.05-2.75-.1-.9-.04-1.79,.23-2.66,.22-.69,.55-1.33,1-1.9,1.02-1.3,2.35-2.1,3.98-2.36,1.42-.23,2.77,0,4.03,.69,1.62,.89,2.68,2.25,3.08,4.05,.4,1.77,.1,3.44-.95,4.94-.03,.05-.06,.09-.1,.15,.4,.35,2.01,1.9,2.43,2.26l.04,.04h-.08Zm10.15,.02c-.91,0-1.82,0-2.72,0-.11,0-.17-.04-.23-.12-.92-1.38-1.85-2.75-2.77-4.13-.06-.1-.13-.15-.25-.14h-.53v4.38h-2.54v-11.99h.18c1.26,0,2.52,0,3.78,0,.81,0,1.61,.11,2.35,.47,1.31,.64,1.97,1.7,2.05,3.14,.04,.66-.06,1.3-.37,1.89-.34,.65-.84,1.13-1.47,1.49-.19,.11-.4,.2-.61,.31,1.1,1.56,2.19,3.11,3.3,4.69h-.17Zm14.12,0h-2.49v-7.91h-.04c-.2,.31-.41,.62-.61,.94-.79,1.24-1.57,2.48-2.36,3.72-.05,.08-.11,.11-.2,.11-.37,0-.75,0-1.12,0-.11,0-.18-.03-.24-.13-.91-1.44-1.82-2.87-2.73-4.3-.07-.1-.13-.21-.2-.31h-.03v7.88h-2.49v-11.99h2.77c2.35,3.73,2.38,3.91,2.94,4.79,.19,.3,.38,.59,.58,.91,.16-.25,.31-.49,.47-.73,2.38-3.78,2.48-4.06,3.05-4.97h2.69v11.99Z"/><path d="M44.85,32.36c-.15,.24-.31,.48-.47,.73-.2-.32-.39-.61-.58-.91-.56-.88-.59-1.07-2.94-4.79h-2.77v11.99h2.49v-7.87h.03c.07,.09,.13,.2,.2,.3,.91,1.43,1.82,2.87,2.73,4.3,.06,.1,.13,.13,.24,.13,.37,0,.75,0,1.12,0,.1,0,.15-.03,.2-.11,.78-1.24,1.57-2.48,2.36-3.72,.2-.32,.4-.63,.61-.95h.04v7.92h2.49v-11.99h-2.69c-.57,.91-.66,1.19-3.05,4.97Z"/><path d="M23.93,37.07c.03-.05,.06-.1,.1-.15,1.05-1.51,1.36-3.17,.95-4.94-.41-1.8-1.46-3.15-3.08-4.05-1.26-.7-2.62-.92-4.03-.69-1.63,.26-2.96,1.06-3.98,2.36-.45,.57-.78,1.21-1,1.9-.27,.87-.34,1.76-.23,2.66,.12,1.01,.48,1.92,1.05,2.75,.65,.94,1.49,1.63,2.53,2.11,1.19,.55,2.43,.7,3.72,.49,.72-.11,1.39-.36,2.02-.71,.21-.12,.42-.27,.42-.27l.96,.84h3.06l-.04-.05c-.42-.36-2.03-1.91-2.43-2.26Zm-1.93-1.67l-1.41-1.22c-.47,.53-.93,1.05-1.4,1.59,.4,.35,.8,.7,1.2,1.05-1.09,.58-3.02,.48-4.21-.84-1.38-1.54-1.28-3.87,.09-5.27,1.34-1.36,3.5-1.47,4.97-.22,1.49,1.26,1.68,3.38,.76,4.92Z"/><path d="M33.95,34.39c.62-.36,1.13-.85,1.47-1.49,.31-.59,.41-1.23,.37-1.89-.08-1.44-.74-2.51-2.05-3.14-.74-.36-1.54-.47-2.35-.47-1.26,0-2.52,0-3.78,0h-.18v11.99h2.54v-4.38h.53c.12-.01,.19,.04,.25,.14,.92,1.38,1.85,2.75,2.77,4.13,.06,.09,.12,.12,.23,.12,.91,0,1.82,0,2.72,0h.17c-1.11-1.58-2.2-3.13-3.3-4.69,.21-.11,.42-.2,.61-.31Zm-.79-2.71c-.17,.72-.68,1.07-1.35,1.15-.6,.07-1.21,.01-1.83,.01v-3.11s.02-.02,.03-.02c.66,0,1.34-.08,1.99,.06,.92,.2,1.38,.99,1.16,1.91Z"/></g></g></g></svg>