<?xml version="1.0" encoding="UTF-8"?>
<svg id="Layer_1" xmlns="http://www.w3.org/2000/svg" version="1.1" xmlns:xlink="http://www.w3.org/1999/xlink" viewBox="0 0 500 500">
  <!-- Generator: Adobe Illustrator 29.3.0, SVG Export Plug-In . SVG Version: 2.1.0 Build 146)  -->
  <defs>
    <style>
      .st0 {
        fill: #fff;
      }
    </style>
  </defs>
  <g id="c">
    <g>
      <path class="st0" d="M262.3,250.7c-1.3,5.7-5.4,8.5-10.7,9.1-1.8.2-3.5.2-5.3.2-3,0-6.1-.2-9.2-.2v-24.6s.2-.2.2-.2c5.2,0,10.6-.7,15.7.5,1.5.4,2.8.8,4,1.6.7.4,1.2.7,1.8,1.3.6.4.9.7,1.2,1.3.5.5.7,1,1.1,1.6,1.4,2.6,1.8,5.8,1,9.3h0Z"/>
      <path class="st0" d="M175.9,276.3c-.6,1.3-1.2,2.4-1.9,3.7l-11.2-9.7h0c-3.7,4.3-7.3,8.3-11.1,12.6,3.2,2.7,6.2,5.5,9.4,8.3-.7.5-1.6.8-2.4,1.2-5.1,1.8-11.6,2.2-17.8.3-1.8-.6-3.8-1.3-5.5-2.3h0c-2.7-1.5-5.2-3.4-7.4-5.7-10.9-12.2-10.2-30.6.7-41.7v-.2c10.6-10.7,27.7-11.6,39.3-1.8,4.4,3.7,7.3,8.5,9,13.5,2.3,7.1,1.8,14.9-1.1,21.8h0Z"/>
      <path class="st0" d="M250,0C111.9,0,0,111.9,0,250s111.9,250,250,250h250v-250C500,111.9,388.1,0,250,0ZM208.1,311.6h.2-23.6l-7.6-6.6s-.2.2-.3.2c-.3.2-.7.6-1.3.7-.5.4-1,.7-1.6,1-5,2.7-10.2,4.8-16,5.6h-.2c-10.2,1.7-20,.5-29.4-3.9-8.2-3.8-14.8-9.3-20-16.7-4.5-6.6-7.3-13.8-8.3-21.8-.7-7.1-.3-14.2,1.8-21.1,1.8-5.5,4.3-10.5,7.9-15,1-1.3,2.2-2.6,3.3-3.7,1-1.3,2.2-2.3,3.3-3.3,5.7-5.2,12.5-8.7,20.1-10.7,1.6-.4,3.2-.7,4.8-.9,11.2-1.8,21.9,0,31.9,5.5,12.8,7,21.2,17.8,24.3,32,3.2,14,.7,27.3-7.5,39.1-.2.4-.5.7-.7,1.2,3.2,2.7,15.9,15,19.3,17.9l.3.3h-.8ZM288.5,311.6h-21.5c-.8,0-1.3-.3-1.8-.9-7.3-10.9-14.7-21.7-21.9-32.6-.2-.4-.5-.7-.7-.7-.2-.3-.7-.5-1.2-.4h-4.2v34.7h-20.1v-94.8h31.3c6.4,0,12.7.8,18.6,3.8,2.6,1.2,4.8,2.7,6.8,4.4,5.8,5.1,8.9,11.9,9.4,20.5.3,5.2-.5,10.2-2.9,14.9-.2.5-.5.8-.8,1.3-.7,1.4-1.7,2.7-2.8,3.9-.3.5-.7.9-1.2,1.4-.9,1-2,1.9-3.1,2.7h0c-1.1.8-2.3,1.6-3.5,2.3-1.5.8-3.2,1.6-4.8,2.4h0c8.6,12.3,17.3,24.5,26,37h-1.4ZM400.2,311.7h-19.6v-62.6h-.3c-1.7,2.4-3.2,4.9-4.8,7.3-6.2,9.8-12.5,19.6-18.7,29.4-.2.2-.2.4-.5.5,0,.2-.2.2-.3.2s-.3.2-.6.2h-9.2c-.8,0-1.4-.2-1.9-1-7.2-11.4-14.4-22.7-21.6-34-.6-.7-1-1.7-1.6-2.4h-.2v62.3h-19.7v-94.8h21.9c18.6,29.5,18.8,30.9,23.2,37.9,1.5,2.3,3,4.7,4.6,7.2h0c1.2-2,2.5-3.9,3.7-5.7,11.7-18.8,16.4-26.7,19.5-31.7.3-.4.6-.8.8-1.2.6-.9,1-1.8,1.7-2.7.5-.7.9-1.5,1.3-2.3.2-.5.5-.8.8-1.3h21.3v94.8h.2Z"/>
      <rect class="st0" x="321" y="249.3" height="62.2"/>
      <path class="st0" d="M346.5,254.6c1.5,2.3,3,4.7,4.6,7.2h0c-1.6-2.5-3.1-4.8-4.6-7.2-4.4-7-4.7-8.4-23.2-37.9h-21.8,21.9c18.6,29.4,18.8,30.9,23.2,37.9h0Z"/>
      <path class="st0" d="M400.3,216.7v94.8h-.2v-94.8h-21.2,21.3Z"/>
      <path class="st0" d="M208.7,311.1c-3.3-2.8-16.1-15.1-19.3-17.9h-.2c.2-.3.5-.7.7-1.1,8.3-11.9,10.7-25.1,7.5-39.1-3.2-14.3-11.6-24.9-24.3-32-10-5.5-20.7-7.3-31.9-5.5h-.2c11.3-1.8,21.9,0,31.9,5.5,12.8,7,21.2,17.8,24.3,32,3.2,14,.7,27.3-7.5,39.1-.2.4-.5.7-.7,1.2,3.2,2.7,15.9,15,19.3,17.9l.2.2h.4l-.3-.4h0ZM168,241.1c-11.7-9.8-28.7-9-39.3,1.8v.2c10.6-10.7,27.7-11.7,39.3-1.8.6.5,1.1.9,1.6,1.4-.5-.7-1-1.1-1.6-1.6h0ZM151.8,282.9h0c3.2,2.8,6.2,5.5,9.4,8.3-3.2-2.8-6.2-5.5-9.4-8.3Z"/>
      <path class="st0" d="M217,311.6h20.1-20.1ZM241.3,276.9h-4.2,4.2c.6,0,.9,0,1.3.3-.2-.3-.7-.5-1.3-.4h0ZM268.6,272c-1.5.8-3.2,1.6-4.8,2.4h0c1.7-.7,3.2-1.5,4.8-2.3h0c1.2-.7,2.3-1.6,3.5-2.3-1.1.7-2.3,1.5-3.5,2.3h0ZM289.8,311.6h-22.7c-.8,0-1.3-.3-1.8-.9h0c.5.7.9,1,1.8,1h22.8v-.2h0Z"/>
    </g>
  </g>
</svg>