<?xml version="1.0" encoding="UTF-8"?>
<svg id="Layer_1" xmlns="http://www.w3.org/2000/svg" version="1.1" xmlns:xlink="http://www.w3.org/1999/xlink" viewBox="0 0 20 20">
  <!-- Generator: Adobe Illustrator 29.3.0, SVG Export Plug-In . SVG Version: 2.1.0 Build 146)  -->
  <defs>
    <style>
      .st0 {
        fill: #fff;
      }
    </style>
  </defs>
  <g id="c">
    <g>
      <path class="st0" d="M10.5,10c0,.2-.2.3-.4.4,0,0-.1,0-.2,0-.1,0-.2,0-.4,0v-1s0,0,0,0c.2,0,.4,0,.6,0,0,0,.1,0,.2,0,0,0,0,0,0,0,0,0,0,0,0,0,0,0,0,0,0,0,0,.1,0,.2,0,.4h0Z"/>
      <path class="st0" d="M7,11.1c0,0,0,0,0,.1l-.4-.4h0c-.1.2-.3.3-.4.5.1.1.2.2.4.3,0,0,0,0,0,0-.2,0-.5,0-.7,0,0,0-.2,0-.2,0h0c-.1,0-.2-.1-.3-.2-.4-.5-.4-1.2,0-1.7h0c.4-.4,1.1-.5,1.6,0,.2.1.3.3.4.5,0,.3,0,.6,0,.9h0Z"/>
      <path class="st0" d="M10,0C4.5,0,0,4.5,0,10s4.5,10,10,10h10v-10C20,4.5,15.5,0,10,0ZM8.3,12.5h0-.9l-.3-.3s0,0,0,0c0,0,0,0,0,0,0,0,0,0,0,0-.2.1-.4.2-.6.2h0c-.4,0-.8,0-1.2-.2-.3-.2-.6-.4-.8-.7-.2-.3-.3-.6-.3-.9,0-.3,0-.6,0-.8,0-.2.2-.4.3-.6,0,0,0-.1.1-.1,0,0,0,0,.1-.1.2-.2.5-.3.8-.4,0,0,.1,0,.2,0,.4,0,.9,0,1.3.2.5.3.8.7,1,1.3.1.6,0,1.1-.3,1.6,0,0,0,0,0,0,.1.1.6.6.8.7h0s0,0,0,0h0ZM11.5,12.5h-.9s0,0,0,0c-.3-.4-.6-.9-.9-1.3,0,0,0,0,0,0,0,0,0,0,0,0h-.2v1.4h-.8v-3.8h1.3c.3,0,.5,0,.7.2.1,0,.2.1.3.2.2.2.4.5.4.8,0,.2,0,.4-.1.6,0,0,0,0,0,0,0,0,0,.1-.1.2,0,0,0,0,0,0,0,0,0,0-.1.1h0s0,0-.1,0c0,0-.1,0-.2,0h0c.3.5.7,1,1,1.5h0ZM16,12.5h-.8v-2.5h0c0,0-.1.2-.2.3-.2.4-.5.8-.7,1.2,0,0,0,0,0,0,0,0,0,0,0,0s0,0,0,0h-.4s0,0,0,0c-.3-.5-.6-.9-.9-1.4,0,0,0,0,0,0h0v2.5h-.8v-3.8h.9c.7,1.2.8,1.2.9,1.5,0,0,.1.2.2.3h0c0,0,0-.2.1-.2.5-.8.7-1.1.8-1.3,0,0,0,0,0,0,0,0,0,0,0-.1,0,0,0,0,0,0,0,0,0,0,0,0h.9v3.8h0Z"/>
      <rect class="st0" x="12.8" y="10" height="2.5"/>
      <path class="st0" d="M13.9,10.2c0,0,.1.2.2.3h0c0-.1-.1-.2-.2-.3-.2-.3-.2-.3-.9-1.5h-.9.9c.7,1.2.8,1.2.9,1.5h0Z"/>
      <path class="st0" d="M16,8.7v3.8h0v-3.8h-.8.9Z"/>
      <path class="st0" d="M8.3,12.4c-.1-.1-.6-.6-.8-.7h0s0,0,0,0c.3-.5.4-1,.3-1.6-.1-.6-.5-1-1-1.3-.4-.2-.8-.3-1.3-.2h0c.5,0,.9,0,1.3.2.5.3.8.7,1,1.3.1.6,0,1.1-.3,1.6,0,0,0,0,0,0,.1.1.6.6.8.7h0s0,0,0,0h0s0,0,0,0ZM6.7,9.6c-.5-.4-1.1-.4-1.6,0h0c.4-.4,1.1-.5,1.6,0,0,0,0,0,0,0,0,0,0,0,0,0h0ZM6.1,11.3h0c.1.1.2.2.4.3-.1-.1-.2-.2-.4-.3Z"/>
      <path class="st0" d="M8.7,12.5h.8-.8ZM9.7,11.1h-.2.2s0,0,0,0c0,0,0,0,0,0h0ZM10.7,10.9c0,0-.1,0-.2,0h0c0,0,.1,0,.2,0h0s0,0,.1,0c0,0,0,0-.1,0h0ZM11.6,12.5h-.9s0,0,0,0h0s0,0,0,0h.9s0,0,0,0Z"/>
    </g>
  </g>
</svg>