<svg xmlns:xlink="http://www.w3.org/1999/xlink" xmlns="http://www.w3.org/2000/svg" width="131" height="60" viewBox="0 0 131 60" fill="none">
<g clip-path="url(#clip0_900_5115)">
<path d="M56.4198 15.6412C57.972 15.6412 59.2304 14.3788 59.2304 12.8217C59.2304 11.2645 57.972 10.0022 56.4198 10.0022C54.8675 10.0022 53.6091 11.2645 53.6091 12.8217C53.6091 14.3788 54.8675 15.6412 56.4198 15.6412Z" fill="white"/>
<path d="M48.681 15.3413H43.6892C43.6892 5.84946 49.4758 0 58.9379 0V4.91176C52.2038 4.91176 48.681 8.58601 48.681 15.3413Z" fill="url(#paint0_linear_900_5115)"/>
<path d="M119.618 41.6289C117.939 41.6289 116.438 41.1952 115.109 40.334C113.78 39.4665 112.737 38.2098 111.968 36.5641C111.198 34.9183 110.811 32.9154 110.811 30.5615C110.811 28.2077 111.205 26.1728 111.987 24.5335C112.769 22.8941 113.831 21.6566 115.166 20.8082C116.502 19.9598 117.99 19.5388 119.63 19.5388C120.889 19.5388 121.926 19.7493 122.727 20.1767C123.528 20.5977 124.171 21.108 124.648 21.6949C125.124 22.2817 125.487 22.8431 125.741 23.3597H125.951V12.6687H131V41.2462H126.047V37.8718H125.741C125.481 38.3948 125.105 38.9434 124.616 39.5239C124.126 40.1044 123.478 40.6019 122.67 41.0102C121.862 41.4184 120.845 41.6226 119.624 41.6226L119.618 41.6289ZM121.023 37.4826C122.625 37.4826 123.865 36.8448 124.737 35.5626C125.608 34.2868 126.047 32.6092 126.047 30.5296C126.047 28.4501 125.614 26.7852 124.756 25.5413C123.891 24.2974 122.651 23.6787 121.029 23.6787C119.408 23.6787 118.085 24.323 117.233 25.6051C116.381 26.8873 115.955 28.533 115.955 30.5296C115.955 32.5262 116.387 34.1975 117.246 35.5116C118.111 36.8256 119.37 37.4763 121.029 37.4763L121.023 37.4826Z" fill="white"/>
<path d="M19.808 21.8032C19.3565 20.285 18.5553 19.0986 17.4107 18.231C16.2661 17.3635 14.8354 16.9361 13.1185 16.9361C11.586 16.9361 10.2251 17.3252 9.02967 18.0971C7.83419 18.8689 6.89308 19.998 6.21267 21.4907C5.53227 22.9769 5.18889 24.7949 5.18889 26.9446C5.18889 30.1851 5.93288 32.6665 7.42087 34.4016C8.90885 36.1366 10.8483 37.0042 13.2266 37.0042C15.3695 37.0042 17.0737 36.4045 18.3455 35.2053C19.6173 34.0061 20.2722 32.3858 20.304 30.351H13.7353V26.3067H25.2958V29.7386C25.2958 32.1945 24.7743 34.3123 23.7378 36.092C22.7013 37.8717 21.2706 39.2432 19.4519 40.2064C17.6333 41.1696 15.5476 41.648 13.1948 41.648C10.5812 41.648 8.27932 41.0548 6.29534 39.8683C4.31136 38.6818 2.76614 36.9914 1.65333 34.8034C0.546878 32.6155 -0.00634766 30.0129 -0.00634766 26.9956C-0.00634766 23.9784 0.565955 21.2929 1.7042 19.0986C2.84245 16.9042 4.40038 15.2202 6.36529 14.0465C8.33019 12.8727 10.5558 12.2859 13.0421 12.2859C15.1469 12.2859 17.0546 12.6878 18.7588 13.4979C20.463 14.308 21.8683 15.4243 22.9748 16.8532C24.0812 18.2821 24.7743 19.9278 25.0605 21.7968H19.8017L19.808 21.8032Z" fill="white"/>
<path d="M72.0466 41.6289C70.3678 41.6289 68.8671 41.1952 67.5381 40.334C66.2091 39.4665 65.1663 38.2098 64.3968 36.5641C63.6274 34.9183 63.2395 32.9154 63.2395 30.5615C63.2395 28.2077 63.6338 26.1728 64.4159 24.5335C65.1981 22.8941 66.26 21.6566 67.5954 20.8082C68.9307 19.9598 70.4187 19.5388 72.0593 19.5388C73.3184 19.5388 74.3549 19.7493 75.1561 20.1767C75.9573 20.5977 76.5996 21.108 77.0765 21.6949C77.5534 22.2817 77.9159 22.8431 78.1702 23.3597H78.3801V12.6687H83.4291V41.2462H78.4755V37.8718H78.1702C77.9095 38.3948 77.5343 38.9434 77.0447 39.5239C76.5551 40.1044 75.9065 40.6019 75.0989 41.0102C74.2913 41.4184 73.2739 41.6226 72.053 41.6226L72.0466 41.6289ZM73.4519 37.4826C75.0544 37.4826 76.2944 36.8448 77.1655 35.5626C78.0367 34.2868 78.4755 32.6092 78.4755 30.5296C78.4755 28.4501 78.0431 26.7852 77.1846 25.5413C76.3198 24.2974 75.0798 23.6787 73.4583 23.6787C71.8368 23.6787 70.5141 24.323 69.662 25.6051C68.8099 26.8873 68.3839 28.533 68.3839 30.5296C68.3839 32.5262 68.8163 34.1975 69.6747 35.5116C70.5395 36.8256 71.7986 37.4763 73.4583 37.4763L73.4519 37.4826Z" fill="white"/>
<path d="M97.5967 41.6736C95.4538 41.6736 93.6033 41.2207 92.0518 40.3213C90.5002 39.4218 89.3047 38.1461 88.4717 36.5003C87.6387 34.8545 87.219 32.909 87.219 30.67C87.219 28.431 87.6387 26.5301 88.4717 24.8588C89.3047 23.1875 90.4811 21.8862 92.0009 20.9485C93.5143 20.0108 95.2948 19.5452 97.336 19.5452C99.0911 19.5452 100.706 19.9215 102.188 20.6806C103.67 21.4397 104.859 22.6134 105.755 24.2081C106.652 25.8029 107.097 27.8569 107.097 30.3702V31.9202H92.2107C92.2362 33.751 92.7449 35.1799 93.7369 36.2069C94.7225 37.2275 96.0324 37.7442 97.6667 37.7442C98.7541 37.7442 99.6888 37.5082 100.484 37.0425C101.279 36.5705 101.844 35.8879 102.188 34.9821L106.887 35.5116C106.442 37.3742 105.405 38.8669 103.778 39.9896C102.15 41.1123 100.089 41.68 97.5967 41.68V41.6736ZM92.2298 28.5139H102.271C102.264 27.0531 101.806 25.8475 100.916 24.8971C100.019 23.9466 98.8494 23.4746 97.406 23.4746C95.9625 23.4746 94.6844 23.9721 93.7496 24.9672C92.8148 25.9623 92.3061 27.1424 92.2362 28.5139H92.2298Z" fill="white"/>
<path d="M58.9408 19.8193H53.9045V41.2525H58.9408V19.8193Z" fill="white"/>
<path d="M43.6921 32.2391V19.8193H48.7283V41.2525H43.8447V37.4443H43.6221C43.1389 38.6435 42.3504 39.6258 41.2503 40.3913C40.1502 41.1568 38.8021 41.5331 37.1933 41.5331C35.0948 41.5331 33.3843 40.8315 32.0616 39.4345C30.7326 38.0375 30.0713 36.0473 30.0713 33.4702V19.8257H35.1075V32.692C35.1075 34.0507 35.4764 35.1287 36.2204 35.9325C36.9644 36.7298 37.9373 37.1317 39.1391 37.1317C39.8831 37.1317 40.6017 36.9531 41.2948 36.5895C41.9879 36.2259 42.5602 35.6837 43.0117 34.9629C43.4632 34.242 43.6857 33.3362 43.6857 32.2518L43.6921 32.2391Z" fill="white"/>
<path d="M48.7539 54.1633H47.1833C47.0942 53.6466 46.859 53.2447 46.4838 52.964C46.1086 52.6833 45.6571 52.5366 45.1357 52.5366C44.4299 52.5366 43.8576 52.7982 43.4061 53.3212C42.9609 53.8443 42.732 54.5906 42.732 55.5666C42.732 56.5426 42.9546 57.3081 43.4061 57.8247C43.8576 58.3414 44.4299 58.5966 45.1293 58.5966C45.6444 58.5966 46.0895 58.4563 46.4647 58.1883C46.8399 57.914 47.0815 57.5249 47.1769 57.021H48.7476C48.6713 57.5823 48.4741 58.0799 48.1562 58.5328C47.8382 58.9793 47.4249 59.3429 46.9035 59.6108C46.3884 59.8787 45.7843 60.0127 45.1039 60.0127C44.3472 60.0127 43.6731 59.8341 43.0818 59.4833C42.4904 59.1324 42.0198 58.6221 41.6764 57.9587C41.3331 57.2953 41.1614 56.5043 41.1614 55.573C41.1614 54.6417 41.3331 53.8443 41.6764 53.1873C42.0198 52.5239 42.4904 52.0199 43.0881 51.6691C43.6859 51.3183 44.3535 51.1396 45.1039 51.1396C45.7398 51.1396 46.3185 51.2609 46.8335 51.4969C47.3486 51.7329 47.7746 52.0837 48.1117 52.5303C48.4487 52.9768 48.6585 53.5254 48.7476 54.1696L48.7539 54.1633Z" fill="white"/>
<path d="M57.2112 59.8787H55.5452L58.572 51.248H60.4988L63.532 59.8787H61.8659L61.1537 57.7482H57.917L57.2048 59.8787H57.2112ZM58.3431 56.4915H60.7404L59.5767 53.015H59.5068L58.3431 56.4915Z" fill="white"/>
<path d="M70.584 59.8787V51.248H73.808C74.7936 51.248 75.5503 51.5032 76.0654 52.0135C76.5805 52.5238 76.8412 53.1872 76.8412 54.0101C76.8412 54.597 76.7076 55.1009 76.4469 55.5219C76.1862 55.9429 75.7983 56.2555 75.296 56.4596L77.1591 59.8851H75.4168L73.7253 56.7212H72.1356V59.8851H70.5776L70.584 59.8787ZM72.1419 55.4199H73.579C74.1577 55.4199 74.5774 55.2987 74.8508 55.0563C75.1243 54.8139 75.2578 54.463 75.2578 54.0037C75.2578 53.5445 75.1243 53.1872 74.8508 52.9321C74.5774 52.6769 74.1513 52.5493 73.5727 52.5493H72.1419V55.4135V55.4199Z" fill="white"/>
<path d="M84.1921 59.8787V51.248H89.788V52.5557H85.7501V54.8968H89.4955V56.2045H85.7501V58.5583H89.8198V59.866H84.1921V59.8787Z" fill="white"/>
</g>
<defs>
<linearGradient id="paint0_linear_900_5115" x1="43.6701" y1="15.2902" x2="64.3317" y2="-7.58381" gradientUnits="userSpaceOnUse">
<stop stop-color="#FFEB7A"/>
<stop offset="0.39" stop-color="#FCCC5C"/>
<stop offset="0.76" stop-color="#FAB647"/>
<stop offset="1" stop-color="#FAAF40"/>
</linearGradient>
<clipPath id="clip0_900_5115">
<rect width="131" height="60" fill="white"/>
</clipPath>
</defs>
</svg>