<?xml version="1.0" encoding="UTF-8"?>
<svg id="Layer_2" data-name="Layer 2" xmlns="http://www.w3.org/2000/svg" viewBox="0 0 207.61 135.44">
  <defs>
    <style>
      .cls-1 {
        fill: #fff;
      }

      .cls-2 {
        fill: #00ab8e;
      }
    </style>
  </defs>
  <g id="Layer_1-2" data-name="Layer 1">
    <g>
      <g>
        <g>
          <path class="cls-1" d="M0,111.83v-21.45h13.76v3.83H4.2v5.15h7.97v3.83h-7.97v8.64H0Z"/>
          <path class="cls-1" d="M26.79,112.2c-2.17,0-4.08-.48-5.74-1.42-1.66-.95-2.97-2.26-3.91-3.92-.94-1.66-1.41-3.57-1.41-5.71s.47-4.11,1.41-5.78c.94-1.66,2.23-2.97,3.88-3.91,1.64-.94,3.54-1.41,5.68-1.41s4.07.48,5.71,1.42c1.64.95,2.94,2.26,3.88,3.92.94,1.66,1.41,3.58,1.41,5.74s-.46,4.05-1.39,5.71c-.93,1.66-2.22,2.97-3.86,3.92-1.64.95-3.53,1.42-5.65,1.42ZM26.79,108.37c1.31,0,2.46-.31,3.45-.93.99-.62,1.77-1.48,2.33-2.56.56-1.08.84-2.33.84-3.74s-.29-2.69-.86-3.77c-.57-1.08-1.36-1.93-2.36-2.56-1-.62-2.17-.93-3.49-.93s-2.44.31-3.45.93c-1.01.62-1.8,1.48-2.37,2.56-.57,1.08-.86,2.34-.86,3.77s.29,2.66.86,3.74c.57,1.08,1.37,1.94,2.39,2.56,1.02.62,2.2.93,3.52.93Z"/>
          <path class="cls-1" d="M51.34,112.2c-2.08,0-3.93-.48-5.55-1.42-1.61-.95-2.88-2.26-3.8-3.92-.92-1.66-1.38-3.58-1.38-5.74s.46-4.08,1.38-5.74c.92-1.66,2.18-2.97,3.78-3.92,1.6-.95,3.45-1.42,5.53-1.42,1.47,0,2.84.26,4.11.78,1.27.52,2.37,1.25,3.32,2.18.95.93,1.68,2,2.19,3.2l-3.89,1.44c-.35-.76-.81-1.41-1.38-1.98-.57-.56-1.23-1-1.96-1.32-.74-.32-1.53-.48-2.39-.48-1.25,0-2.35.31-3.32.93-.97.62-1.73,1.48-2.27,2.56-.54,1.08-.81,2.34-.81,3.77s.28,2.69.83,3.78c.55,1.09,1.32,1.95,2.3,2.57.98.62,2.1.93,3.37.93.88,0,1.68-.17,2.41-.51.72-.34,1.37-.8,1.93-1.39.56-.59,1.02-1.28,1.36-2.05l3.89,1.41c-.51,1.25-1.24,2.35-2.19,3.31-.95.96-2.06,1.71-3.32,2.24-1.27.53-2.65.8-4.14.8Z"/>
          <path class="cls-1" d="M62.29,111.83l8.46-21.45h4.2l-8.21,21.45h-4.44ZM66.27,107.12v-3.71h13.45v3.71h-13.45ZM79.23,111.83l-8.21-21.45h4.2l8.46,21.45h-4.44Z"/>
          <path class="cls-1" d="M87.47,111.83v-21.45h4.2v17.62h9.44v3.83h-13.63Z"/>
          <path class="cls-1" d="M113.67,111.83v-21.45h7.97c1.51,0,2.85.3,4.01.9,1.16.6,2.07,1.44,2.73,2.51.65,1.07.98,2.31.98,3.72s-.32,2.63-.95,3.71c-.63,1.08-1.5,1.94-2.6,2.56-1.1.62-2.38.93-3.83.93h-4.11v7.11h-4.2ZM117.87,100.86h4.01c.94,0,1.71-.31,2.31-.93.6-.62.9-1.42.9-2.41s-.33-1.78-1-2.39c-.66-.61-1.52-.92-2.56-.92h-3.68v6.65Z"/>
          <path class="cls-1" d="M143,112.2c-2.17,0-4.08-.48-5.74-1.42-1.66-.95-2.97-2.26-3.91-3.92-.94-1.66-1.41-3.57-1.41-5.71s.47-4.11,1.41-5.78,2.23-2.97,3.88-3.91c1.64-.94,3.54-1.41,5.68-1.41s4.07.48,5.71,1.42c1.64.95,2.94,2.26,3.88,3.92.94,1.66,1.41,3.58,1.41,5.74s-.47,4.05-1.39,5.71c-.93,1.66-2.22,2.97-3.86,3.92-1.64.95-3.53,1.42-5.65,1.42ZM143,108.37c1.31,0,2.46-.31,3.45-.93.99-.62,1.77-1.48,2.33-2.56.56-1.08.84-2.33.84-3.74s-.29-2.69-.86-3.77c-.57-1.08-1.36-1.93-2.36-2.56-1-.62-2.17-.93-3.49-.93s-2.44.31-3.45.93c-1.01.62-1.8,1.48-2.37,2.56-.57,1.08-.86,2.34-.86,3.77s.29,2.66.86,3.74c.57,1.08,1.37,1.94,2.39,2.56,1.02.62,2.2.93,3.52.93Z"/>
          <path class="cls-1" d="M158.26,111.83v-21.45h4.2v21.45h-4.2Z"/>
          <path class="cls-1" d="M167.57,111.83v-21.45h4.38l10.48,14.4v-14.4h4.17v21.45h-4.17l-10.66-14.68v14.68h-4.2Z"/>
          <path class="cls-1" d="M197.01,111.83v-17.62h-6.43v-3.83h17.04v3.83h-6.4v17.62h-4.2Z"/>
        </g>
        <g>
          <path class="cls-1" d="M74.65,135.44c-1.26,0-2.38-.29-3.36-.87s-1.75-1.38-2.31-2.4c-.56-1.02-.83-2.19-.83-3.51s.28-2.5.83-3.51c.56-1.02,1.32-1.82,2.3-2.4s2.09-.87,3.36-.87c.85,0,1.65.15,2.4.46.75.31,1.42.73,2,1.27.58.54,1.03,1.16,1.34,1.87l-1.99.81c-.23-.47-.53-.9-.91-1.26-.38-.37-.82-.65-1.3-.85-.49-.2-1-.3-1.54-.3-.83,0-1.56.21-2.2.62-.64.41-1.15.98-1.52,1.7s-.55,1.55-.55,2.48.18,1.77.55,2.49.88,1.29,1.54,1.71c.66.41,1.4.62,2.24.62.55,0,1.07-.11,1.55-.33.48-.22.91-.52,1.29-.91.38-.39.68-.84.91-1.35l1.99.81c-.31.74-.76,1.39-1.33,1.96-.57.57-1.24,1.01-2.01,1.32s-1.57.47-2.44.47Z"/>
          <path class="cls-1" d="M88.26,135.21l5.23-13.12h2.19l-5.12,13.12h-2.31ZM90.71,131.99v-1.93h7.86v1.93h-7.86ZM98.74,135.21l-5.12-13.12h2.17l5.25,13.12h-2.31Z"/>
          <path class="cls-1" d="M109.87,135.21v-13.12h4.63c.9,0,1.69.18,2.38.53.69.35,1.22.83,1.61,1.45s.58,1.33.58,2.15-.2,1.53-.61,2.16-.97,1.12-1.68,1.47c-.71.36-1.52.53-2.42.53h-2.32v4.84h-2.17ZM112.05,128.37h2.55c.42,0,.8-.09,1.13-.28s.6-.44.81-.77c.21-.32.31-.69.31-1.11,0-.63-.23-1.14-.68-1.54-.45-.4-1.03-.6-1.74-.6h-2.38v4.29ZM117.15,135.21l-3.07-5.32,1.69-1.16,3.84,6.49h-2.46Z"/>
          <path class="cls-1" d="M128.94,135.21v-13.12h8.08v1.99h-5.9v3.49h5.21v1.95h-5.21v3.71h5.96v1.99h-8.14Z"/>
        </g>
      </g>
      <path class="cls-2" d="M112.3,8.48l9.31,9.31h0s-9.31-9.31-9.31-9.31Z"/>
      <polygon class="cls-2" points="106.47 32.93 98.24 41.17 132.39 75.27 104.58 75.29 84.28 55.13 64.16 75.27 28.5 75.27 103.82 0 179.11 75.29 148.85 75.27 106.47 32.93"/>
    </g>
  </g>
</svg>